name C:\Users\u0101727\Documents\MyRepositories\upper-imu-dc\Results\main_tracking\Case_10\kinematics.mot
datacolumns 10
datarows 33
range 2.00000000 2.32000000
endheader 
time	clav_prot	clav_elev	scapula_abduction	scapula_elevation	scapula_upward_rot	scapula_winging	plane_elv	shoulder_elv	axial_rot	
          2.00000000	        -31.05600583	          9.13774651	         -0.15757091	         -1.69863725	         54.87775974	         -7.38079136	         66.99683602	         72.51023117	        -19.78385022	
          2.01000000	        -31.26121423	          9.27795551	         -0.22612317	         -1.63546574	         55.27460436	         -7.49123376	         66.72412083	         72.82744454	        -19.97363788	
          2.02000000	        -31.46158082	          9.41328035	         -0.28970264	         -1.57422693	         55.66507652	         -7.59879081	         66.45408602	         73.13890382	        -20.07342791	
          2.03000000	        -31.65817643	          9.54440732	         -0.35124941	         -1.51452283	         56.04823147	         -7.70382454	         66.19253352	         73.44544982	        -20.05852021	
          2.04000000	        -31.85196948	          9.67201585	         -0.41357920	         -1.45596151	         56.42305758	         -7.80669986	         65.94374515	         73.74847369	        -19.92206276	
          2.05000000	        -32.04347611	          9.79649014	         -0.47852505	         -1.39833414	         56.78864823	         -7.90763081	         65.70957325	         74.04962371	        -19.67618859	
          2.06000000	        -32.23260104	          9.91767801	         -0.54639332	         -1.34177168	         57.14441609	         -8.00658308	         65.48924300	         74.35042673	        -19.34816111	
          2.07000000	        -32.41872267	         10.03479386	         -0.61590661	         -1.28681779	         57.49029468	         -8.10327168	         65.27991105	         74.65191879	        -18.97283663	
          2.08000000	        -32.60095969	         10.14649497	         -0.68460377	         -1.23439214	         57.82684594	         -8.19724517	         65.07769544	         74.95440828	        -18.58437765	
          2.09000000	        -32.77848277	         10.25108556	         -0.74950068	         -1.18566583	         58.15520586	         -8.28800834	         64.87871557	         75.25748468	        -18.21053984	
          2.10000000	        -32.95075180	         10.34676884	         -0.80777942	         -1.14189636	         58.47686487	         -8.37513248	         64.67976731	         75.56030846	        -17.87163102	
          2.11000000	        -33.11763967	         10.43189461	         -0.85734404	         -1.10425927	         58.79337183	         -8.45833291	         64.47854398	         75.86206663	        -17.58350727	
          2.12000000	        -33.27947406	         10.50520396	         -0.89717090	         -1.07368091	         59.10610979	         -8.53752626	         64.27360429	         76.16233568	        -17.36104050	
          2.13000000	        -33.43704192	         10.56608555	         -0.92744407	         -1.05066668	         59.41625088	         -8.61288520	         64.06436780	         76.46111369	        -17.21802187	
          2.14000000	        -33.59156340	         10.61480593	         -0.94948316	         -1.03514799	         59.72487802	         -8.68488262	         63.85123979	         76.75849200	        -17.16230738	
          2.15000000	        -33.74460114	         10.65262594	         -0.96545763	         -1.02640131	         60.03317625	         -8.75429324	         63.63572622	         77.05414609	        -17.18856802	
          2.16000000	        -33.89787743	         10.68173609	         -0.97790253	         -1.02308031	         60.34259382	         -8.82212684	         63.42031552	         77.34689683	        -17.27264656	
          2.17000000	        -34.05302121	         10.70501706	         -0.98914953	         -1.02335784	         60.65488995	         -8.88949805	         63.20801147	         77.63457022	        -17.37111384	
          2.18000000	        -34.21131504	         10.72569042	         -1.00087573	         -1.02513963	         60.97200442	         -8.95746730	         63.00158426	         77.91429178	        -17.42778350	
          2.19000000	        -34.37352148	         10.74693416	         -1.01392805	         -1.02630766	         61.29575745	         -9.02689746	         62.80275405	         78.18315328	        -17.38590191	
          2.20000000	        -34.53983099	         10.77151669	         -1.02842367	         -1.02496323	         61.62748540	         -9.09835637	         62.61158569	         78.43898829	        -17.20159370	
          2.21000000	        -34.70991910	         10.80148413	         -1.04400364	         -1.01964665	         61.96774324	         -9.17207315	         62.42631410	         78.68096897	        -16.85339973	
          2.22000000	        -34.88307081	         10.83793492	         -1.06011458	         -1.00950675	         62.31614574	         -9.24794159	         62.24364386	         78.90989554	        -16.34527288	
          2.23000000	        -35.05833333	         10.88093313	         -1.07626440	         -0.99438040	         62.67135020	         -9.32556656	         62.05938698	         79.12821105	        -15.70379207	
          2.24000000	        -35.23467470	         10.92961410	         -1.09224573	         -0.97474219	         63.03116155	         -9.40435388	         61.86921525	         79.33981507	        -14.97209786	
          2.25000000	        -35.41112955	         10.98248626	         -1.10830334	         -0.95151825	         63.39275107	         -9.48363486	         61.66930504	         79.54971024	        -14.20294414	
          2.26000000	        -35.58690367	         11.03784920	         -1.12518402	         -0.92581506	         63.75297142	         -9.56279499	         61.45671484	         79.76349717	        -13.45232979	
          2.27000000	        -35.76140767	         11.09419245	         -1.14402095	         -0.89865136	         64.10871290	         -9.64136527	         61.22944622	         79.98676960	        -12.77429233	
          2.28000000	        -35.93421630	         11.15045623	         -1.16607364	         -0.87077365	         64.45722386	         -9.71905014	         60.98625842	         80.22450345	        -12.21693717	
          2.29000000	        -36.10498326	         11.20610761	         -1.19241080	         -0.84259053	         64.79633717	         -9.79569609	         60.72637892	         80.48053369	        -11.81956665	
          2.30000000	        -36.27335463	         11.26105725	         -1.22363427	         -0.81421368	         65.12458570	         -9.87122657	         60.44925075	         80.75717618	        -11.61066301	
          2.31000000	        -36.43891603	         11.31547718	         -1.25970826	         -0.78556906	         65.44122632	         -9.94557254	         60.15441557	         81.05500213	        -11.60633424	
          2.32000000	        -36.60119726	         11.36958177	         -1.29992649	         -0.75653878	         65.74620635	        -10.01862335	         59.84159376	         81.37274363	        -11.80876009	
